<svg width="117" height="26" viewBox="0 0 117 26" fill="none" xmlns="http://www.w3.org/2000/svg">
    <g clip-path="url(#clip0)">
        <path d="M45.4178 19.55L40.8197 7.37035H37.8713L33.2732 19.55H35.8882L36.6955 17.2861H41.9956L42.7853 19.55H45.4178ZM39.3455 9.72205L41.2936 15.2678H37.3975L39.3455 9.72205ZM52.7902 7.19485C51.4213 7.19485 50.3157 7.5283 49.4557 8.21275C48.5958 8.8972 48.1746 9.79225 48.1746 10.9154C48.1746 15.3907 55.177 13.4426 55.177 16.0576C55.177 17.0579 54.2293 17.7248 52.8429 17.7248C51.2809 17.7248 50.2981 16.8824 50.2806 15.6364H47.8411C47.8587 16.8649 48.315 17.8477 49.21 18.5848C50.1051 19.3394 51.2634 19.708 52.72 19.708C54.1942 19.708 55.3876 19.3745 56.3002 18.6901C57.2128 18.0232 57.6691 17.1106 57.6691 15.9698C57.6691 11.3717 50.6667 13.4251 50.6667 10.7575C50.6667 9.79225 51.5091 9.178 52.72 9.178C54.0538 9.178 54.9489 9.9502 54.9664 11.1611H57.3357C57.3181 9.9853 56.8969 9.02005 56.0545 8.28295C55.1946 7.5634 54.1065 7.19485 52.7902 7.19485ZM62.4594 8.94985C61.2485 10.1257 60.6518 11.635 60.6518 13.4426C60.6518 15.2503 61.2485 16.7596 62.4594 17.9354C63.6528 19.1113 65.1797 19.708 67.0224 19.708C68.8652 19.708 70.392 19.1113 71.603 17.9354C72.7964 16.7596 73.3931 15.2503 73.3931 13.4426C73.3931 11.635 72.7964 10.1257 71.603 8.94985C70.392 7.774 68.8652 7.19485 67.0224 7.19485C65.1797 7.19485 63.6528 7.774 62.4594 8.94985ZM67.0224 9.44125C68.1632 9.44125 69.0933 9.8098 69.8304 10.5644C70.55 11.3191 70.9185 12.2668 70.9185 13.4251C70.9185 14.6009 70.55 15.5837 69.8304 16.3384C69.0933 17.093 68.1632 17.4791 67.0224 17.4791C65.8992 17.4791 64.9691 17.093 64.2495 16.3208C63.5124 15.5662 63.1439 14.6009 63.1439 13.4251C63.1439 12.2668 63.5124 11.3191 64.2495 10.5644C64.9691 9.8098 65.8992 9.44125 67.0224 9.44125ZM78.1996 8.94985C76.9886 10.1257 76.3919 11.635 76.3919 13.4426C76.3919 15.2503 76.9886 16.7596 78.1996 17.9354C79.393 19.1113 80.9198 19.708 82.7626 19.708C84.6053 19.708 86.1322 19.1113 87.3431 17.9354C88.5366 16.7596 89.1333 15.2503 89.1333 13.4426C89.1333 11.635 88.5366 10.1257 87.3431 8.94985C86.1322 7.774 84.6053 7.19485 82.7626 7.19485C80.9198 7.19485 79.393 7.774 78.1996 8.94985ZM82.7626 9.44125C83.9033 9.44125 84.8335 9.8098 85.5706 10.5644C86.2901 11.3191 86.6587 12.2668 86.6587 13.4251C86.6587 14.6009 86.2901 15.5837 85.5706 16.3384C84.8335 17.093 83.9033 17.4791 82.7626 17.4791C81.6394 17.4791 80.7092 17.093 79.9897 16.3208C79.2526 15.5662 78.884 14.6009 78.884 13.4251C78.884 12.2668 79.2526 11.3191 79.9897 10.5644C80.7092 9.8098 81.6394 9.44125 82.7626 9.44125ZM100.521 16.2682L95.8176 7.37035H92.7113V19.55H95.1507V10.6522L99.8541 19.55H102.96V7.37035H100.521V16.2682ZM115.995 7.37035H107.448V19.55H115.995V17.3914H109.888V14.443H115.521V12.3721H109.888V9.51145H115.995V7.37035Z" fill="#4442A8"/>
        <circle cx="21.166" cy="19.4313" r="5.8388" fill="#4442A8"/>
        <path d="M13.5016 10.1842C11.0581 8.77339 10.2208 5.64882 11.6316 3.20525C13.0424 0.761673 16.167 -0.0755783 18.6106 1.33522L17.1509 3.86345C19.5945 5.27425 20.4317 8.39886 19.0209 10.8424C17.6101 13.286 14.4855 14.1232 12.0419 12.7124L13.5016 10.1842Z" fill="#4442A8"/>
        <path d="M6.20373 7.75366L12.4075 20.1611H0L6.20373 7.75366Z" fill="#4442A8"/>
    </g>
    <defs>
        <clipPath id="clip0">
            <rect width="117" height="26" fill="white"/>
        </clipPath>
    </defs>
</svg>
