<svg width="234" height="49" viewBox="0 0 234 49" fill="none" xmlns="http://www.w3.org/2000/svg">
    <path d="M66.332 22.0001V9.22012H68.816V19.8221H72.722V9.22012H75.206V19.8221H79.112V9.22012H81.596V22.0001H66.332ZM84.2977 22.0001V12.5681H86.7097V16.1321H87.5197L90.0757 12.5681H92.7037L89.3557 17.1221L93.0637 22.0001H90.3097L87.4837 18.2561H86.7097V22.0001H84.2977ZM98.6971 22.1801C97.6651 22.1801 96.7771 21.9581 96.0331 21.5141C95.3011 21.0581 94.7371 20.4581 94.3411 19.7141C93.9451 18.9701 93.7471 18.1661 93.7471 17.3021C93.7471 16.4261 93.9451 15.6161 94.3411 14.8721C94.7491 14.1281 95.3191 13.5341 96.0511 13.0901C96.7951 12.6341 97.6771 12.4061 98.6971 12.4061C99.7171 12.4061 100.593 12.6341 101.325 13.0901C102.069 13.5341 102.639 14.1281 103.035 14.8721C103.431 15.6161 103.629 16.4261 103.629 17.3021C103.629 18.1661 103.431 18.9701 103.035 19.7141C102.639 20.4581 102.069 21.0581 101.325 21.5141C100.593 21.9581 99.7171 22.1801 98.6971 22.1801ZM96.2311 17.3021C96.2311 17.8541 96.3391 18.3461 96.5551 18.7781C96.7711 19.1981 97.0651 19.5281 97.4371 19.7681C97.8091 20.0081 98.2291 20.1281 98.6971 20.1281C99.1531 20.1281 99.5671 20.0081 99.9391 19.7681C100.311 19.5161 100.605 19.1801 100.821 18.7601C101.049 18.3281 101.163 17.8361 101.163 17.2841C101.163 16.7441 101.049 16.2641 100.821 15.8441C100.605 15.4121 100.311 15.0761 99.9391 14.8361C99.5671 14.5841 99.1531 14.4581 98.6971 14.4581C98.2291 14.4581 97.8091 14.5841 97.4371 14.8361C97.0651 15.0761 96.7711 15.4121 96.5551 15.8441C96.3391 16.2641 96.2311 16.7501 96.2311 17.3021ZM104.843 22.1261V19.9841C105.227 19.9721 105.557 19.8461 105.833 19.6061C106.121 19.3661 106.349 18.9281 106.517 18.2921C106.685 17.6561 106.793 16.7381 106.841 15.5381L106.967 12.5681H114.041V22.0001H111.629V14.6741H109.091L109.055 15.7721C108.983 17.4161 108.785 18.7001 108.461 19.6241C108.149 20.5361 107.693 21.1781 107.093 21.5501C106.493 21.9221 105.743 22.1141 104.843 22.1261ZM115.854 19.2101C115.854 18.5981 116.022 18.0641 116.358 17.6081C116.706 17.1401 117.186 16.7801 117.798 16.5281C118.41 16.2761 119.112 16.1501 119.904 16.1501C120.3 16.1501 120.702 16.1861 121.11 16.2581C121.518 16.3181 121.872 16.4081 122.172 16.5281V16.0241C122.172 15.4241 121.992 14.9621 121.632 14.6381C121.284 14.3141 120.762 14.1521 120.066 14.1521C119.55 14.1521 119.058 14.2421 118.59 14.4221C118.122 14.6021 117.63 14.8661 117.114 15.2141L116.34 13.6301C116.964 13.2221 117.6 12.9161 118.248 12.7121C118.908 12.5081 119.598 12.4061 120.318 12.4061C121.662 12.4061 122.706 12.7421 123.45 13.4141C124.206 14.0861 124.584 15.0461 124.584 16.2941V19.3001C124.584 19.5641 124.626 19.7501 124.71 19.8581C124.794 19.9541 124.944 20.0141 125.16 20.0381V22.0001C124.944 22.0481 124.746 22.0781 124.566 22.0901C124.398 22.1141 124.254 22.1261 124.134 22.1261C123.654 22.1261 123.288 22.0181 123.036 21.8021C122.784 21.5861 122.634 21.3221 122.586 21.0101L122.532 20.5241C122.112 21.0641 121.596 21.4781 120.984 21.7661C120.384 22.0421 119.766 22.1801 119.13 22.1801C118.494 22.1801 117.93 22.0541 117.438 21.8021C116.946 21.5381 116.556 21.1841 116.268 20.7401C115.992 20.2841 115.854 19.7741 115.854 19.2101ZM121.722 19.6961C122.022 19.4081 122.172 19.1321 122.172 18.8681V17.9141C121.548 17.6621 120.918 17.5361 120.282 17.5361C119.646 17.5361 119.13 17.6741 118.734 17.9501C118.338 18.2141 118.14 18.5681 118.14 19.0121C118.14 19.3721 118.284 19.6961 118.572 19.9841C118.86 20.2721 119.274 20.4161 119.814 20.4161C120.174 20.4161 120.522 20.3501 120.858 20.2181C121.206 20.0861 121.494 19.9121 121.722 19.6961ZM135.478 9.22012H137.998L142.696 22.0001H140.14L138.952 18.8141H134.488L133.318 22.0001H130.762L135.478 9.22012ZM138.502 17.0681L136.738 11.7941L134.902 17.0681H138.502ZM152.453 12.5681C152.345 12.4481 152.117 12.2921 151.769 12.1001C151.421 11.8961 151.001 11.7161 150.509 11.5601C150.029 11.3921 149.531 11.3081 149.015 11.3081C147.659 11.3081 146.981 11.7881 146.981 12.7481C146.981 13.0961 147.089 13.3721 147.305 13.5761C147.521 13.7801 147.845 13.9541 148.277 14.0981C148.709 14.2421 149.249 14.3981 149.897 14.5661C150.737 14.7821 151.463 15.0341 152.075 15.3221C152.699 15.6101 153.173 15.9941 153.497 16.4741C153.833 16.9421 154.001 17.5661 154.001 18.3461C154.001 19.2581 153.779 19.9961 153.335 20.5601C152.903 21.1121 152.327 21.5141 151.607 21.7661C150.887 22.0181 150.107 22.1441 149.267 22.1441C148.307 22.1441 147.353 22.0001 146.405 21.7121C145.469 21.4121 144.635 21.0041 143.903 20.4881L145.001 18.3461C145.109 18.4541 145.301 18.5981 145.577 18.7781C145.853 18.9461 146.189 19.1201 146.585 19.3001C146.981 19.4681 147.413 19.6121 147.881 19.7321C148.349 19.8521 148.823 19.9121 149.303 19.9121C150.671 19.9121 151.355 19.4741 151.355 18.5981C151.355 18.2261 151.217 17.9261 150.941 17.6981C150.665 17.4701 150.275 17.2781 149.771 17.1221C149.279 16.9661 148.703 16.7921 148.043 16.6001C147.227 16.3721 146.549 16.1201 146.009 15.8441C145.481 15.5561 145.085 15.2021 144.821 14.7821C144.557 14.3501 144.425 13.8041 144.425 13.1441C144.425 12.2681 144.629 11.5361 145.037 10.9481C145.457 10.3481 146.021 9.89812 146.729 9.59812C147.437 9.28612 148.223 9.13012 149.087 9.13012C149.975 9.13012 150.803 9.27412 151.571 9.56212C152.339 9.85012 152.999 10.1801 153.551 10.5521L152.453 12.5681ZM162.232 22.0901C161.296 22.0901 160.444 21.9101 159.676 21.5501C158.92 21.1901 158.266 20.7041 157.714 20.0921C157.174 19.4681 156.754 18.7721 156.454 18.0041C156.154 17.2241 156.004 16.4261 156.004 15.6101C156.004 14.7581 156.16 13.9481 156.472 13.1801C156.784 12.4001 157.222 11.7101 157.786 11.1101C158.35 10.4981 159.01 10.0181 159.766 9.67012C160.534 9.31012 161.374 9.13012 162.286 9.13012C163.21 9.13012 164.05 9.31612 164.806 9.68812C165.574 10.0601 166.228 10.5581 166.768 11.1821C167.32 11.8061 167.74 12.5081 168.028 13.2881C168.328 14.0561 168.478 14.8421 168.478 15.6461C168.478 16.4861 168.322 17.2961 168.01 18.0761C167.698 18.8441 167.26 19.5341 166.696 20.1461C166.144 20.7461 165.484 21.2201 164.716 21.5681C163.96 21.9161 163.132 22.0901 162.232 22.0901ZM158.524 15.6101C158.524 16.3541 158.668 17.0501 158.956 17.6981C159.256 18.3461 159.682 18.8741 160.234 19.2821C160.798 19.6901 161.47 19.8941 162.25 19.8941C163.054 19.8941 163.732 19.6841 164.284 19.2641C164.836 18.8441 165.256 18.3041 165.544 17.6441C165.832 16.9841 165.976 16.3061 165.976 15.6101C165.976 14.8661 165.826 14.1701 165.526 13.5221C165.226 12.8741 164.794 12.3521 164.23 11.9561C163.678 11.5481 163.018 11.3441 162.25 11.3441C161.446 11.3441 160.768 11.5541 160.216 11.9741C159.664 12.3941 159.244 12.9341 158.956 13.5941C158.668 14.2421 158.524 14.9141 158.524 15.6101Z" fill="#6B7297"/>
    <path d="M76.628 41.706C76.628 42.426 76.442 43.032 76.07 43.524C75.698 44.004 75.194 44.37 74.558 44.622C73.934 44.874 73.25 45 72.506 45H66.332V32.22H73.172C73.772 32.22 74.288 32.382 74.72 32.706C75.152 33.018 75.488 33.426 75.728 33.93C75.968 34.434 76.088 34.95 76.088 35.478C76.088 36.102 75.932 36.69 75.62 37.242C75.308 37.782 74.852 38.184 74.252 38.448C74.984 38.664 75.56 39.054 75.98 39.618C76.412 40.182 76.628 40.878 76.628 41.706ZM68.816 34.344V37.566H72.128C72.536 37.566 72.89 37.422 73.19 37.134C73.49 36.846 73.64 36.45 73.64 35.946C73.64 35.466 73.502 35.082 73.226 34.794C72.962 34.494 72.632 34.344 72.236 34.344H68.816ZM74.126 41.238C74.126 40.77 73.982 40.368 73.694 40.032C73.406 39.696 73.052 39.528 72.632 39.528H68.816V42.894H72.506C72.962 42.894 73.346 42.732 73.658 42.408C73.97 42.084 74.126 41.694 74.126 41.238ZM77.9184 45.126V42.984C78.3024 42.972 78.6324 42.846 78.9084 42.606C79.1964 42.366 79.4244 41.928 79.5924 41.292C79.7604 40.656 79.8684 39.738 79.9164 38.538L80.0424 35.568H87.1164V45H84.7044V37.674H82.1664L82.1304 38.772C82.0584 40.416 81.8604 41.7 81.5364 42.624C81.2244 43.536 80.7684 44.178 80.1684 44.55C79.5684 44.922 78.8184 45.114 77.9184 45.126ZM88.9295 42.21C88.9295 41.598 89.0975 41.064 89.4335 40.608C89.7815 40.14 90.2615 39.78 90.8735 39.528C91.4855 39.276 92.1875 39.15 92.9795 39.15C93.3755 39.15 93.7775 39.186 94.1855 39.258C94.5935 39.318 94.9475 39.408 95.2475 39.528V39.024C95.2475 38.424 95.0675 37.962 94.7075 37.638C94.3595 37.314 93.8375 37.152 93.1415 37.152C92.6255 37.152 92.1335 37.242 91.6655 37.422C91.1975 37.602 90.7055 37.866 90.1895 38.214L89.4155 36.63C90.0395 36.222 90.6755 35.916 91.3235 35.712C91.9835 35.508 92.6735 35.406 93.3935 35.406C94.7375 35.406 95.7815 35.742 96.5255 36.414C97.2815 37.086 97.6595 38.046 97.6595 39.294V42.3C97.6595 42.564 97.7015 42.75 97.7855 42.858C97.8695 42.954 98.0195 43.014 98.2355 43.038V45C98.0195 45.048 97.8215 45.078 97.6415 45.09C97.4735 45.114 97.3295 45.126 97.2095 45.126C96.7295 45.126 96.3635 45.018 96.1115 44.802C95.8595 44.586 95.7095 44.322 95.6615 44.01L95.6075 43.524C95.1875 44.064 94.6715 44.478 94.0595 44.766C93.4595 45.042 92.8415 45.18 92.2055 45.18C91.5695 45.18 91.0055 45.054 90.5135 44.802C90.0215 44.538 89.6315 44.184 89.3435 43.74C89.0675 43.284 88.9295 42.774 88.9295 42.21ZM94.7975 42.696C95.0975 42.408 95.2475 42.132 95.2475 41.868V40.914C94.6235 40.662 93.9935 40.536 93.3575 40.536C92.7215 40.536 92.2055 40.674 91.8095 40.95C91.4135 41.214 91.2155 41.568 91.2155 42.012C91.2155 42.372 91.3595 42.696 91.6475 42.984C91.9355 43.272 92.3495 43.416 92.8895 43.416C93.2495 43.416 93.5975 43.35 93.9335 43.218C94.2815 43.086 94.5695 42.912 94.7975 42.696ZM99.4094 47.286V42.894H99.6614C99.9734 42.894 100.261 42.774 100.525 42.534C100.789 42.294 101.005 41.862 101.173 41.238C101.353 40.614 101.461 39.714 101.497 38.538L101.605 35.568H108.679V42.894H109.993V47.286H107.887V45H101.533V47.286H99.4094ZM102.703 42.894H106.267V37.602H103.711L103.657 38.772C103.609 39.972 103.507 40.89 103.351 41.526C103.195 42.162 102.979 42.618 102.703 42.894ZM111.178 42.21C111.178 41.598 111.346 41.064 111.682 40.608C112.03 40.14 112.51 39.78 113.122 39.528C113.734 39.276 114.436 39.15 115.228 39.15C115.624 39.15 116.026 39.186 116.434 39.258C116.842 39.318 117.196 39.408 117.496 39.528V39.024C117.496 38.424 117.316 37.962 116.956 37.638C116.608 37.314 116.086 37.152 115.39 37.152C114.874 37.152 114.382 37.242 113.914 37.422C113.446 37.602 112.954 37.866 112.438 38.214L111.664 36.63C112.288 36.222 112.924 35.916 113.572 35.712C114.232 35.508 114.922 35.406 115.642 35.406C116.986 35.406 118.03 35.742 118.774 36.414C119.53 37.086 119.908 38.046 119.908 39.294V42.3C119.908 42.564 119.95 42.75 120.034 42.858C120.118 42.954 120.268 43.014 120.484 43.038V45C120.268 45.048 120.07 45.078 119.89 45.09C119.722 45.114 119.578 45.126 119.458 45.126C118.978 45.126 118.612 45.018 118.36 44.802C118.108 44.586 117.958 44.322 117.91 44.01L117.856 43.524C117.436 44.064 116.92 44.478 116.308 44.766C115.708 45.042 115.09 45.18 114.454 45.18C113.818 45.18 113.254 45.054 112.762 44.802C112.27 44.538 111.88 44.184 111.592 43.74C111.316 43.284 111.178 42.774 111.178 42.21ZM117.046 42.696C117.346 42.408 117.496 42.132 117.496 41.868V40.914C116.872 40.662 116.242 40.536 115.606 40.536C114.97 40.536 114.454 40.674 114.058 40.95C113.662 41.214 113.464 41.568 113.464 42.012C113.464 42.372 113.608 42.696 113.896 42.984C114.184 43.272 114.598 43.416 115.138 43.416C115.498 43.416 115.846 43.35 116.182 43.218C116.53 43.086 116.818 42.912 117.046 42.696ZM127.297 45V32.22H137.647V45H135.181V34.398H129.763V45H127.297ZM144.731 45.18C143.699 45.18 142.811 44.958 142.067 44.514C141.335 44.058 140.771 43.458 140.375 42.714C139.979 41.97 139.781 41.166 139.781 40.302C139.781 39.426 139.979 38.616 140.375 37.872C140.783 37.128 141.353 36.534 142.085 36.09C142.829 35.634 143.711 35.406 144.731 35.406C145.751 35.406 146.627 35.634 147.359 36.09C148.103 36.534 148.673 37.128 149.069 37.872C149.465 38.616 149.663 39.426 149.663 40.302C149.663 41.166 149.465 41.97 149.069 42.714C148.673 43.458 148.103 44.058 147.359 44.514C146.627 44.958 145.751 45.18 144.731 45.18ZM142.265 40.302C142.265 40.854 142.373 41.346 142.589 41.778C142.805 42.198 143.099 42.528 143.471 42.768C143.843 43.008 144.263 43.128 144.731 43.128C145.187 43.128 145.601 43.008 145.973 42.768C146.345 42.516 146.639 42.18 146.855 41.76C147.083 41.328 147.197 40.836 147.197 40.284C147.197 39.744 147.083 39.264 146.855 38.844C146.639 38.412 146.345 38.076 145.973 37.836C145.601 37.584 145.187 37.458 144.731 37.458C144.263 37.458 143.843 37.584 143.471 37.836C143.099 38.076 142.805 38.412 142.589 38.844C142.373 39.264 142.265 39.75 142.265 40.302ZM150.877 45.126V42.984C151.261 42.972 151.591 42.846 151.867 42.606C152.155 42.366 152.383 41.928 152.551 41.292C152.719 40.656 152.827 39.738 152.875 38.538L153.001 35.568H160.075V45H157.663V37.674H155.125L155.089 38.772C155.017 40.416 154.819 41.7 154.495 42.624C154.183 43.536 153.727 44.178 153.127 44.55C152.527 44.922 151.777 45.114 150.877 45.126ZM162.032 45L164.426 41.328C163.85 41.172 163.4 40.866 163.076 40.41C162.752 39.954 162.59 39.354 162.59 38.61C162.59 37.686 162.902 36.942 163.526 36.378C164.15 35.814 164.96 35.532 165.956 35.532H170.438V45H168.026V41.742H166.748L164.678 45H162.032ZM166.244 40.014H168.026V37.386H166.334C165.902 37.386 165.56 37.506 165.308 37.746C165.056 37.974 164.93 38.286 164.93 38.682C164.93 39.066 165.038 39.384 165.254 39.636C165.482 39.888 165.812 40.014 166.244 40.014ZM172.896 45V35.568H175.308V39.168H179.124V35.568H181.536V45H179.124V41.184H175.308V45H172.896ZM188.403 45.18C187.383 45.18 186.501 44.952 185.757 44.496C185.013 44.04 184.437 43.44 184.029 42.696C183.621 41.952 183.417 41.148 183.417 40.284C183.417 39.408 183.615 38.598 184.011 37.854C184.419 37.11 184.995 36.516 185.739 36.072C186.483 35.628 187.365 35.406 188.385 35.406C189.417 35.406 190.293 35.628 191.013 36.072C191.745 36.516 192.291 37.098 192.651 37.818L190.293 38.538C189.873 37.818 189.231 37.458 188.367 37.458C187.899 37.458 187.479 37.578 187.107 37.818C186.735 38.046 186.441 38.376 186.225 38.808C186.009 39.228 185.901 39.72 185.901 40.284C185.901 40.836 186.009 41.328 186.225 41.76C186.453 42.18 186.753 42.516 187.125 42.768C187.497 43.008 187.911 43.128 188.367 43.128C188.799 43.128 189.195 43.026 189.555 42.822C189.927 42.606 190.185 42.336 190.329 42.012L192.687 42.732C192.363 43.44 191.823 44.028 191.067 44.496C190.323 44.952 189.435 45.18 188.403 45.18ZM194.442 45V35.568H196.854V39.132H197.664L200.22 35.568H202.848L199.5 40.122L203.208 45H200.454L197.628 41.256H196.854V45H194.442ZM208.841 45.18C207.809 45.18 206.921 44.958 206.177 44.514C205.445 44.058 204.881 43.458 204.485 42.714C204.089 41.97 203.891 41.166 203.891 40.302C203.891 39.426 204.089 38.616 204.485 37.872C204.893 37.128 205.463 36.534 206.195 36.09C206.939 35.634 207.821 35.406 208.841 35.406C209.861 35.406 210.737 35.634 211.469 36.09C212.213 36.534 212.783 37.128 213.179 37.872C213.575 38.616 213.773 39.426 213.773 40.302C213.773 41.166 213.575 41.97 213.179 42.714C212.783 43.458 212.213 44.058 211.469 44.514C210.737 44.958 209.861 45.18 208.841 45.18ZM206.375 40.302C206.375 40.854 206.483 41.346 206.699 41.778C206.915 42.198 207.209 42.528 207.581 42.768C207.953 43.008 208.373 43.128 208.841 43.128C209.297 43.128 209.711 43.008 210.083 42.768C210.455 42.516 210.749 42.18 210.965 41.76C211.193 41.328 211.307 40.836 211.307 40.284C211.307 39.744 211.193 39.264 210.965 38.844C210.749 38.412 210.455 38.076 210.083 37.836C209.711 37.584 209.297 37.458 208.841 37.458C208.373 37.458 207.953 37.584 207.581 37.836C207.209 38.076 206.915 38.412 206.699 38.844C206.483 39.264 206.375 39.75 206.375 40.302ZM215.671 45V35.568H221.917V37.674H218.083V45H215.671ZM227.926 45.18C226.894 45.18 226.006 44.958 225.262 44.514C224.53 44.058 223.966 43.458 223.57 42.714C223.174 41.97 222.976 41.166 222.976 40.302C222.976 39.426 223.174 38.616 223.57 37.872C223.978 37.128 224.548 36.534 225.28 36.09C226.024 35.634 226.906 35.406 227.926 35.406C228.946 35.406 229.822 35.634 230.554 36.09C231.298 36.534 231.868 37.128 232.264 37.872C232.66 38.616 232.858 39.426 232.858 40.302C232.858 41.166 232.66 41.97 232.264 42.714C231.868 43.458 231.298 44.058 230.554 44.514C229.822 44.958 228.946 45.18 227.926 45.18ZM225.46 40.302C225.46 40.854 225.568 41.346 225.784 41.778C226 42.198 226.294 42.528 226.666 42.768C227.038 43.008 227.458 43.128 227.926 43.128C228.382 43.128 228.796 43.008 229.168 42.768C229.54 42.516 229.834 42.18 230.05 41.76C230.278 41.328 230.392 40.836 230.392 40.284C230.392 39.744 230.278 39.264 230.05 38.844C229.834 38.412 229.54 38.076 229.168 37.836C228.796 37.584 228.382 37.458 227.926 37.458C227.458 37.458 227.038 37.584 226.666 37.836C226.294 38.076 226 38.412 225.784 38.844C225.568 39.264 225.46 39.75 225.46 40.302Z" fill="#6B7297"/>
    <g clip-path="url(#clip0)">
        <path d="M33 49.0001H48.9999V16.022C48.9999 13.7779 48.0574 11.637 46.4022 10.1216L38.9995 3.34375L22 39L33 49.0001Z" fill="#6B7297"/>
        <path d="M32.9995 48.9993L16.8138 48.9997C14.692 48.9998 12.6571 48.1569 11.1568 46.6566L4.5 39.9999H33L32.9995 48.9993Z" fill="#6B7297"/>
        <path d="M39 20H41V22V39V41H39H12.5C6.70101 41 2 36.299 2 30.5C2 24.701 6.70101 20 12.5 20H39Z" fill="#CACFDD" stroke="#6B7297" stroke-width="4"/>
        <path d="M41 39L41 41L39 41L22 41L20 41L20 39L20 12.5C20 6.70101 24.701 2 30.5 2C36.299 2 41 6.70101 41 12.5L41 39Z" fill="#E3E6ED" stroke="#6B7297" stroke-width="4"/>
        <path d="M49 49.0011L39 39H22L33 49.0011H49Z" fill="#CACFDD"/>
    </g>
    <defs>
        <clipPath id="clip0">
            <rect width="49" height="49.0011" fill="white"/>
        </clipPath>
    </defs>
</svg>
